<?xml version="1.0" encoding="utf-8"?>
<!-- Generator: Adobe Illustrator 16.0.0, SVG Export Plug-In . SVG Version: 6.00 Build 0)  -->
<!DOCTYPE svg PUBLIC "-//W3C//DTD SVG 1.1//EN" "http://www.w3.org/Graphics/SVG/1.1/DTD/svg11.dtd" [
	<!ENTITY st0 "fill:url(#SVGID_1_);">
	<!ENTITY st1 "fill:url(#SVGID_2_);">
	<!ENTITY st2 "fill:url(#SVGID_3_);">
	<!ENTITY st3 "fill:url(#SVGID_4_);">
	<!ENTITY st4 "fill:url(#SVGID_5_);">
	<!ENTITY st5 "fill:url(#SVGID_6_);">
	<!ENTITY st6 "fill:url(#SVGID_7_);">
	<!ENTITY st7 "fill:url(#SVGID_8_);">
	<!ENTITY st8 "fill:url(#SVGID_9_);">
	<!ENTITY st9 "fill:url(#SVGID_10_);">
	<!ENTITY st10 "fill:url(#SVGID_11_);">
	<!ENTITY st11 "fill:url(#SVGID_12_);">
	<!ENTITY st12 "fill:url(#SVGID_13_);">
	<!ENTITY st13 "fill:url(#SVGID_14_);">
	<!ENTITY st14 "fill:url(#SVGID_15_);">
	<!ENTITY st15 "fill:url(#SVGID_16_);">
	<!ENTITY st16 "fill:url(#SVGID_17_);">
	<!ENTITY st17 "fill:url(#SVGID_18_);">
	<!ENTITY st18 "fill:url(#SVGID_19_);">
	<!ENTITY st19 "fill:url(#SVGID_20_);">
	<!ENTITY st20 "fill:url(#SVGID_21_);">
	<!ENTITY st21 "fill:url(#SVGID_22_);">
	<!ENTITY st22 "fill:url(#SVGID_23_);">
	<!ENTITY st23 "fill:url(#SVGID_24_);">
	<!ENTITY st24 "fill:url(#SVGID_25_);">
	<!ENTITY st25 "fill:url(#SVGID_26_);">
	<!ENTITY st26 "fill:url(#SVGID_27_);">
	<!ENTITY st27 "fill:url(#SVGID_28_);">
	<!ENTITY st28 "fill:url(#SVGID_29_);">
	<!ENTITY st29 "fill:url(#SVGID_30_);">
	<!ENTITY st30 "fill:url(#SVGID_31_);">
	<!ENTITY st31 "fill:url(#SVGID_32_);">
	<!ENTITY st32 "fill:url(#SVGID_33_);">
	<!ENTITY st33 "fill:url(#SVGID_34_);">
	<!ENTITY st34 "fill:url(#SVGID_35_);">
	<!ENTITY st35 "fill:url(#SVGID_36_);">
	<!ENTITY st36 "fill:url(#SVGID_37_);">
	<!ENTITY st37 "fill:url(#SVGID_38_);">
	<!ENTITY st38 "fill:url(#SVGID_39_);">
	<!ENTITY st39 "fill:url(#SVGID_40_);">
	<!ENTITY st40 "fill:url(#SVGID_41_);">
	<!ENTITY st41 "fill:url(#SVGID_42_);">
	<!ENTITY st42 "fill:url(#SVGID_43_);">
	<!ENTITY st43 "fill:url(#SVGID_44_);">
	<!ENTITY st44 "fill:url(#SVGID_45_);">
	<!ENTITY st45 "fill:url(#SVGID_46_);">
	<!ENTITY st46 "fill:url(#SVGID_47_);">
	<!ENTITY st47 "fill:url(#SVGID_48_);">
]>
<svg version="1.1" id="Layer_1" xmlns="http://www.w3.org/2000/svg" xmlns:xlink="http://www.w3.org/1999/xlink" x="0px" y="0px"
	 width="162.841px" height="75.99px" viewBox="0 0 162.841 75.99" style="enable-background:new 0 0 162.841 75.99;"
	 xml:space="preserve">
<g>
	
		<linearGradient id="SVGID_1_" gradientUnits="userSpaceOnUse" x1="81.4204" y1="75.9902" x2="81.4204" y2="0" gradientTransform="matrix(-1 0 0 1 162.8408 0)">
		<stop  offset="0.0625" style="stop-color:#FFFFFF"/>
		<stop  offset="0.9375" style="stop-color:#B4B4B4"/>
	</linearGradient>
	<path style="&st0;" d="M37.995,75.99h86.851c20.951,0,37.995-17.044,37.995-37.995C162.841,17.043,145.797,0,124.846,0H37.995
		C17.044,0,0,17.043,0,37.995C0,58.946,17.044,75.99,37.995,75.99L37.995,75.99z"/>
	<g>
		
			<linearGradient id="SVGID_2_" gradientUnits="userSpaceOnUse" x1="81.4204" y1="74.1816" x2="81.4204" y2="1.8086" gradientTransform="matrix(-1 0 0 1 162.8408 0)">
			<stop  offset="0.125" style="stop-color:#FFFFFF"/>
			<stop  offset="0.875" style="stop-color:#818181"/>
		</linearGradient>
		<path style="&st1;" d="M37.995,1.809c7.581,0,79.268,0,86.85,0c19.985,0,36.188,16.2,36.188,36.187
			c0,19.985-16.202,36.187-36.188,36.187c-7.582,0-79.269,0-86.85,0c-19.986,0-36.187-16.201-36.187-36.187
			C1.809,18.009,18.009,1.809,37.995,1.809z"/>
		
			<linearGradient id="SVGID_3_" gradientUnits="userSpaceOnUse" x1="81.4204" y1="73.4922" x2="81.4204" y2="2.498" gradientTransform="matrix(-1 0 0 1 162.8408 0)">
			<stop  offset="0" style="stop-color:#FEFEFE"/>
			<stop  offset="0.125" style="stop-color:#FDFDFD"/>
			<stop  offset="0.875" style="stop-color:#838383"/>
			<stop  offset="1" style="stop-color:#828383"/>
		</linearGradient>
		<path style="&st2;" d="M37.995,2.498c7.555,0,79.294,0,86.85,0c19.604,0,35.498,15.892,35.498,35.497
			c0,19.604-15.894,35.497-35.498,35.497c-7.556,0-79.295,0-86.85,0C18.39,73.492,2.498,57.6,2.498,37.995
			C2.498,18.39,18.39,2.498,37.995,2.498z"/>
		
			<linearGradient id="SVGID_4_" gradientUnits="userSpaceOnUse" x1="81.4204" y1="72.8032" x2="81.4204" y2="3.187" gradientTransform="matrix(-1 0 0 1 162.8408 0)">
			<stop  offset="0" style="stop-color:#FDFDFD"/>
			<stop  offset="0.125" style="stop-color:#FBFBFB"/>
			<stop  offset="0.875" style="stop-color:#858585"/>
			<stop  offset="1" style="stop-color:#848485"/>
		</linearGradient>
		<path style="&st3;" d="M37.995,3.187c7.529,0,79.32,0,86.85,0c19.224,0,34.809,15.583,34.809,34.808
			c0,19.224-15.585,34.808-34.809,34.808c-7.53,0-79.321,0-86.85,0c-19.225,0-34.808-15.584-34.808-34.808
			C3.187,18.77,18.77,3.187,37.995,3.187z"/>
		
			<linearGradient id="SVGID_5_" gradientUnits="userSpaceOnUse" x1="81.4204" y1="72.1138" x2="81.4204" y2="3.8765" gradientTransform="matrix(-1 0 0 1 162.8408 0)">
			<stop  offset="0" style="stop-color:#FCFCFC"/>
			<stop  offset="0.125" style="stop-color:#FAFAF9"/>
			<stop  offset="0.875" style="stop-color:#878787"/>
			<stop  offset="1" style="stop-color:#868687"/>
		</linearGradient>
		<path style="&st4;" d="M37.995,3.876c7.502,0,79.346,0,86.85,0c18.843,0,34.12,15.274,34.12,34.119
			c0,18.843-15.276,34.119-34.12,34.119c-7.503,0-79.347,0-86.85,0c-18.844,0-34.119-15.275-34.119-34.119
			C3.876,19.151,19.151,3.876,37.995,3.876z"/>
		
			<linearGradient id="SVGID_6_" gradientUnits="userSpaceOnUse" x1="81.4204" y1="71.4248" x2="81.4204" y2="4.5654" gradientTransform="matrix(-1 0 0 1 162.8408 0)">
			<stop  offset="0" style="stop-color:#FBFBFB"/>
			<stop  offset="0.125" style="stop-color:#F9F8F8"/>
			<stop  offset="0.875" style="stop-color:#8A898A"/>
			<stop  offset="1" style="stop-color:#888889"/>
		</linearGradient>
		<path style="&st5;" d="M37.995,4.565c7.477,0,79.372,0,86.85,0c18.463,0,33.43,14.966,33.43,33.43
			c0,18.463-14.967,33.43-33.43,33.43c-7.478,0-79.373,0-86.85,0c-18.463,0-33.43-14.967-33.43-33.43
			C4.565,19.532,19.532,4.565,37.995,4.565z"/>
		
			<linearGradient id="SVGID_7_" gradientUnits="userSpaceOnUse" x1="81.4204" y1="70.7354" x2="81.4204" y2="5.2549" gradientTransform="matrix(-1 0 0 1 162.8408 0)">
			<stop  offset="0" style="stop-color:#FAFAFA"/>
			<stop  offset="0.125" style="stop-color:#F7F7F6"/>
			<stop  offset="0.875" style="stop-color:#8C8C8C"/>
			<stop  offset="1" style="stop-color:#8A8A8B"/>
		</linearGradient>
		<path style="&st6;" d="M37.995,5.255c7.45,0,79.398,0,86.85,0c18.082,0,32.741,14.658,32.741,32.74
			c0,18.082-14.659,32.74-32.741,32.74c-7.451,0-79.399,0-86.85,0c-18.083,0-32.74-14.658-32.74-32.74
			C5.255,19.913,19.913,5.255,37.995,5.255z"/>
		
			<linearGradient id="SVGID_8_" gradientUnits="userSpaceOnUse" x1="81.4204" y1="70.0459" x2="81.4204" y2="5.9443" gradientTransform="matrix(-1 0 0 1 162.8408 0)">
			<stop  offset="0" style="stop-color:#F9F9F9"/>
			<stop  offset="0.125" style="stop-color:#F6F5F5"/>
			<stop  offset="0.875" style="stop-color:#8E8E8E"/>
			<stop  offset="1" style="stop-color:#8C8C8D"/>
		</linearGradient>
		<path style="&st7;" d="M37.995,5.944c7.424,0,79.424,0,86.85,0c17.701,0,32.052,14.349,32.052,32.051
			c0,17.701-14.351,32.051-32.052,32.051c-7.425,0-79.425,0-86.85,0c-17.702,0-32.051-14.35-32.051-32.051
			C5.944,20.293,20.293,5.944,37.995,5.944z"/>
		
			<linearGradient id="SVGID_9_" gradientUnits="userSpaceOnUse" x1="81.4204" y1="69.3569" x2="81.4204" y2="6.6333" gradientTransform="matrix(-1 0 0 1 162.8408 0)">
			<stop  offset="0" style="stop-color:#F9F8F8"/>
			<stop  offset="0.125" style="stop-color:#F5F4F4"/>
			<stop  offset="0.875" style="stop-color:#919091"/>
			<stop  offset="1" style="stop-color:#8E8E8F"/>
		</linearGradient>
		<path style="&st8;" d="M37.995,6.633c7.398,0,79.451,0,86.85,0c17.321,0,31.362,14.041,31.362,31.362
			c0,17.321-14.042,31.362-31.362,31.362c-7.399,0-79.452,0-86.85,0c-17.321,0-31.362-14.041-31.362-31.362
			C6.633,20.674,20.674,6.633,37.995,6.633z"/>
		
			<linearGradient id="SVGID_10_" gradientUnits="userSpaceOnUse" x1="81.4204" y1="68.6675" x2="81.4204" y2="7.3228" gradientTransform="matrix(-1 0 0 1 162.8408 0)">
			<stop  offset="0" style="stop-color:#F8F7F7"/>
			<stop  offset="0.125" style="stop-color:#F4F3F3"/>
			<stop  offset="0.875" style="stop-color:#939393"/>
			<stop  offset="1" style="stop-color:#919091"/>
		</linearGradient>
		<path style="&st9;" d="M37.995,7.323c7.372,0,79.477,0,86.85,0c16.94,0,30.673,13.732,30.673,30.672
			c0,16.94-13.733,30.672-30.673,30.672c-7.373,0-79.478,0-86.85,0c-16.94,0-30.672-13.732-30.672-30.672
			C7.323,21.055,21.055,7.323,37.995,7.323z"/>
		
			<linearGradient id="SVGID_11_" gradientUnits="userSpaceOnUse" x1="81.4204" y1="67.978" x2="81.4204" y2="8.0122" gradientTransform="matrix(-1 0 0 1 162.8408 0)">
			<stop  offset="0" style="stop-color:#F7F7F6"/>
			<stop  offset="0.125" style="stop-color:#F3F2F2"/>
			<stop  offset="0.875" style="stop-color:#969595"/>
			<stop  offset="1" style="stop-color:#939393"/>
		</linearGradient>
		<path style="&st10;" d="M37.995,8.012c7.346,0,79.503,0,86.85,0c16.559,0,29.984,13.423,29.984,29.983
			c0,16.559-13.425,29.983-29.984,29.983c-7.347,0-79.504,0-86.85,0c-16.56,0-29.983-13.424-29.983-29.983
			C8.012,21.435,21.435,8.012,37.995,8.012z"/>
		
			<linearGradient id="SVGID_12_" gradientUnits="userSpaceOnUse" x1="81.4204" y1="67.2891" x2="81.4204" y2="8.7012" gradientTransform="matrix(-1 0 0 1 162.8408 0)">
			<stop  offset="0" style="stop-color:#F6F6F6"/>
			<stop  offset="0.125" style="stop-color:#F2F1F1"/>
			<stop  offset="0.875" style="stop-color:#989898"/>
			<stop  offset="1" style="stop-color:#959595"/>
		</linearGradient>
		<path style="&st11;" d="M37.995,8.701c7.32,0,79.529,0,86.85,0c16.179,0,29.294,13.115,29.294,29.294
			c0,16.179-13.116,29.294-29.294,29.294c-7.321,0-79.53,0-86.85,0c-16.179,0-29.294-13.115-29.294-29.294
			C8.701,21.816,21.816,8.701,37.995,8.701z"/>
		
			<linearGradient id="SVGID_13_" gradientUnits="userSpaceOnUse" x1="81.4204" y1="66.5996" x2="81.4204" y2="9.3906" gradientTransform="matrix(-1 0 0 1 162.8408 0)">
			<stop  offset="0" style="stop-color:#F6F5F5"/>
			<stop  offset="0.125" style="stop-color:#F1F0F0"/>
			<stop  offset="0.875" style="stop-color:#9B9A9A"/>
			<stop  offset="1" style="stop-color:#979797"/>
		</linearGradient>
		<path style="&st12;" d="M37.995,9.391c7.293,0,79.555,0,86.85,0c15.798,0,28.605,12.806,28.605,28.604
			c0,15.798-12.807,28.604-28.605,28.604c-7.294,0-79.556,0-86.85,0c-15.798,0-28.604-12.807-28.604-28.604
			C9.391,22.197,22.197,9.391,37.995,9.391z"/>
		
			<linearGradient id="SVGID_14_" gradientUnits="userSpaceOnUse" x1="81.4209" y1="65.9106" x2="81.4209" y2="10.0796" gradientTransform="matrix(-1 0 0 1 162.8408 0)">
			<stop  offset="0" style="stop-color:#F5F5F4"/>
			<stop  offset="0.125" style="stop-color:#F0EFEF"/>
			<stop  offset="0.875" style="stop-color:#9D9D9D"/>
			<stop  offset="1" style="stop-color:#999999"/>
		</linearGradient>
		<path style="&st13;" d="M37.995,10.08c7.268,0,79.581,0,86.85,0c15.417,0,27.916,12.498,27.916,27.916
			s-12.498,27.916-27.916,27.916c-7.269,0-79.582,0-86.85,0c-15.417,0-27.916-12.498-27.916-27.916S22.578,10.08,37.995,10.08z"/>
		
			<linearGradient id="SVGID_15_" gradientUnits="userSpaceOnUse" x1="81.4204" y1="65.2212" x2="81.4204" y2="10.769" gradientTransform="matrix(-1 0 0 1 162.8408 0)">
			<stop  offset="0" style="stop-color:#F4F4F4"/>
			<stop  offset="0.125" style="stop-color:#EFEEEE"/>
			<stop  offset="0.875" style="stop-color:#A09FA0"/>
			<stop  offset="1" style="stop-color:#9B9B9C"/>
		</linearGradient>
		<path style="&st14;" d="M37.995,10.769c7.241,0,79.607,0,86.85,0c15.037,0,27.227,12.189,27.227,27.226
			c0,15.037-12.19,27.226-27.227,27.226c-7.242,0-79.608,0-86.85,0c-15.037,0-27.226-12.189-27.226-27.226
			C10.769,22.958,22.958,10.769,37.995,10.769z"/>
		
			<linearGradient id="SVGID_16_" gradientUnits="userSpaceOnUse" x1="81.4204" y1="64.5317" x2="81.4204" y2="11.4585" gradientTransform="matrix(-1 0 0 1 162.8408 0)">
			<stop  offset="0" style="stop-color:#F4F3F3"/>
			<stop  offset="0.125" style="stop-color:#EEEDED"/>
			<stop  offset="0.875" style="stop-color:#A2A2A2"/>
			<stop  offset="1" style="stop-color:#9E9E9E"/>
		</linearGradient>
		<path style="&st15;" d="M37.995,11.458c7.215,0,79.633,0,86.85,0c14.656,0,26.537,11.88,26.537,26.537
			c0,14.656-11.881,26.537-26.537,26.537c-7.216,0-79.634,0-86.85,0c-14.656,0-26.537-11.881-26.537-26.537
			C11.458,23.339,23.339,11.458,37.995,11.458z"/>
		
			<linearGradient id="SVGID_17_" gradientUnits="userSpaceOnUse" x1="81.4209" y1="63.8428" x2="81.4209" y2="12.1475" gradientTransform="matrix(-1 0 0 1 162.8408 0)">
			<stop  offset="0" style="stop-color:#F3F3F2"/>
			<stop  offset="0.125" style="stop-color:#EDECEC"/>
			<stop  offset="0.875" style="stop-color:#A5A5A5"/>
			<stop  offset="1" style="stop-color:#A0A0A0"/>
		</linearGradient>
		<path style="&st16;" d="M37.995,12.147c7.189,0,79.66,0,86.85,0c14.275,0,25.848,11.572,25.848,25.848
			s-11.572,25.848-25.848,25.848c-7.19,0-79.661,0-86.85,0c-14.275,0-25.848-11.572-25.848-25.848S23.72,12.147,37.995,12.147z"/>
		
			<linearGradient id="SVGID_18_" gradientUnits="userSpaceOnUse" x1="81.4204" y1="63.1533" x2="81.4204" y2="12.8369" gradientTransform="matrix(-1 0 0 1 162.8408 0)">
			<stop  offset="0" style="stop-color:#F3F2F2"/>
			<stop  offset="0.125" style="stop-color:#ECEBEB"/>
			<stop  offset="0.875" style="stop-color:#A8A7A8"/>
			<stop  offset="1" style="stop-color:#A2A2A3"/>
		</linearGradient>
		<path style="&st17;" d="M37.995,12.837c7.163,0,79.686,0,86.85,0c13.895,0,25.159,11.263,25.159,25.158
			c0,13.895-11.264,25.158-25.159,25.158c-7.164,0-79.687,0-86.85,0c-13.895,0-25.158-11.264-25.158-25.158
			C12.837,24.1,24.1,12.837,37.995,12.837z"/>
		
			<linearGradient id="SVGID_19_" gradientUnits="userSpaceOnUse" x1="81.4204" y1="62.4639" x2="81.4204" y2="13.5264" gradientTransform="matrix(-1 0 0 1 162.8408 0)">
			<stop  offset="0" style="stop-color:#F2F1F1"/>
			<stop  offset="0.125" style="stop-color:#EBEAEA"/>
			<stop  offset="0.875" style="stop-color:#ABAAAA"/>
			<stop  offset="1" style="stop-color:#A5A5A5"/>
		</linearGradient>
		<path style="&st18;" d="M37.995,13.526c7.137,0,79.712,0,86.85,0c13.514,0,24.469,10.955,24.469,24.469
			c0,13.514-10.956,24.469-24.469,24.469c-7.138,0-79.713,0-86.85,0c-13.514,0-24.469-10.955-24.469-24.469
			C13.526,24.481,24.481,13.526,37.995,13.526z"/>
		
			<linearGradient id="SVGID_20_" gradientUnits="userSpaceOnUse" x1="81.4209" y1="61.7749" x2="81.4209" y2="14.2153" gradientTransform="matrix(-1 0 0 1 162.8408 0)">
			<stop  offset="0" style="stop-color:#F1F1F1"/>
			<stop  offset="0.125" style="stop-color:#EAE9E9"/>
			<stop  offset="0.875" style="stop-color:#AEADAD"/>
			<stop  offset="1" style="stop-color:#A7A7A8"/>
		</linearGradient>
		<path style="&st19;" d="M37.995,14.215c7.111,0,79.738,0,86.85,0c13.133,0,23.78,10.646,23.78,23.78s-10.646,23.78-23.78,23.78
			c-7.112,0-79.739,0-86.85,0c-13.133,0-23.78-10.646-23.78-23.78S24.862,14.215,37.995,14.215z"/>
		
			<linearGradient id="SVGID_21_" gradientUnits="userSpaceOnUse" x1="81.4209" y1="61.0854" x2="81.4209" y2="14.9048" gradientTransform="matrix(-1 0 0 1 162.8408 0)">
			<stop  offset="0" style="stop-color:#F1F0F0"/>
			<stop  offset="0.125" style="stop-color:#E9E8E8"/>
			<stop  offset="0.875" style="stop-color:#B1B0B1"/>
			<stop  offset="1" style="stop-color:#AAAAAA"/>
		</linearGradient>
		<path style="&st20;" d="M37.995,14.905c7.084,0,79.764,0,86.85,0c12.752,0,23.09,10.338,23.09,23.09s-10.338,23.09-23.09,23.09
			c-7.085,0-79.765,0-86.85,0c-12.752,0-23.09-10.338-23.09-23.09S25.243,14.905,37.995,14.905z"/>
		
			<linearGradient id="SVGID_22_" gradientUnits="userSpaceOnUse" x1="81.4209" y1="60.3965" x2="81.4209" y2="15.5938" gradientTransform="matrix(-1 0 0 1 162.8408 0)">
			<stop  offset="0" style="stop-color:#F0F0EF"/>
			<stop  offset="0.125" style="stop-color:#E8E7E7"/>
			<stop  offset="0.875" style="stop-color:#B4B4B4"/>
			<stop  offset="1" style="stop-color:#ADADAD"/>
		</linearGradient>
		<path style="&st21;" d="M37.995,15.594c7.059,0,79.79,0,86.85,0c12.372,0,22.401,10.029,22.401,22.401
			s-10.029,22.401-22.401,22.401c-7.06,0-79.791,0-86.85,0c-12.372,0-22.401-10.029-22.401-22.401S25.623,15.594,37.995,15.594z"/>
		
			<linearGradient id="SVGID_23_" gradientUnits="userSpaceOnUse" x1="81.4209" y1="59.707" x2="81.4209" y2="16.2832" gradientTransform="matrix(-1 0 0 1 162.8408 0)">
			<stop  offset="0" style="stop-color:#F0EFEF"/>
			<stop  offset="1" style="stop-color:#B0B0B0"/>
		</linearGradient>
		<path style="&st22;" d="M37.995,16.283c7.032,0,79.816,0,86.85,0c11.991,0,21.712,9.721,21.712,21.712
			s-9.721,21.712-21.712,21.712c-7.033,0-79.817,0-86.85,0c-11.991,0-21.712-9.721-21.712-21.712S26.004,16.283,37.995,16.283z"/>
	</g>
	
		<linearGradient id="SVGID_24_" gradientUnits="userSpaceOnUse" x1="81.4204" y1="61.5176" x2="81.4204" y2="14.4707" gradientTransform="matrix(-1 0 0 1 162.8408 0)">
		<stop  offset="0.125" style="stop-color:#FFFFFF"/>
		<stop  offset="0.875" style="stop-color:#908F8F"/>
	</linearGradient>
	<path style="&st23;" d="M37.996,61.518h86.85c12.97,0,23.522-10.554,23.522-23.524c0-12.969-10.553-23.522-23.522-23.522h-86.85
		c-12.971,0-23.523,10.554-23.523,23.522C14.473,50.964,25.025,61.518,37.996,61.518L37.996,61.518z"/>
	
		<linearGradient id="SVGID_25_" gradientUnits="userSpaceOnUse" x1="81.4209" y1="16.2832" x2="81.4209" y2="59.707" gradientTransform="matrix(-1 0 0 1 162.8408 0)">
		<stop  offset="0.125" style="stop-color:#EF4723"/>
		<stop  offset="1" style="stop-color:#BE2026"/>
	</linearGradient>
	<path style="&st24;" d="M37.995,16.283c7.032,0,79.816,0,86.85,0c11.991,0,21.712,9.721,21.712,21.712s-9.721,21.712-21.712,21.712
		c-7.033,0-79.817,0-86.85,0c-11.991,0-21.712-9.721-21.712-21.712S26.004,16.283,37.995,16.283z"/>
	
		<linearGradient id="SVGID_26_" gradientUnits="userSpaceOnUse" x1="124.8452" y1="7.2373" x2="124.8452" y2="68.7529" gradientTransform="matrix(-1 0 0 1 162.8408 0)">
		<stop  offset="0.25" style="stop-color:#FFFFFF"/>
		<stop  offset="0.875" style="stop-color:#9F9F9F"/>
	</linearGradient>
	<circle style="&st25;" cx="37.996" cy="37.995" r="30.759"/>
	<g>
		
			<linearGradient id="SVGID_27_" gradientUnits="userSpaceOnUse" x1="104.3765" y1="58.4648" x2="145.3171" y2="17.5242" gradientTransform="matrix(-1 0 0 1 162.8408 0)">
			<stop  offset="0" style="stop-color:#FFFFFF"/>
			<stop  offset="0.0428" style="stop-color:#ECEAEA"/>
			<stop  offset="0.1876" style="stop-color:#C1BFBE"/>
			<stop  offset="0.3172" style="stop-color:#A5A3A3"/>
			<stop  offset="0.4258" style="stop-color:#959594"/>
			<stop  offset="0.5" style="stop-color:#908F8F"/>
			<stop  offset="0.5742" style="stop-color:#959594"/>
			<stop  offset="0.6828" style="stop-color:#A5A3A3"/>
			<stop  offset="0.8124" style="stop-color:#C1BFBE"/>
			<stop  offset="0.9572" style="stop-color:#ECEAEA"/>
			<stop  offset="1" style="stop-color:#FFFFFF"/>
		</linearGradient>
		<circle style="&st26;" cx="37.995" cy="37.993" r="28.949"/>
		
			<linearGradient id="SVGID_28_" gradientUnits="userSpaceOnUse" x1="105.332" y1="57.5098" x2="144.3621" y2="18.4797" gradientTransform="matrix(-1 0 0 1 162.8408 0)">
			<stop  offset="0" style="stop-color:#FFFFFF"/>
			<stop  offset="0.0428" style="stop-color:#ECEAEA"/>
			<stop  offset="0.1876" style="stop-color:#C1BFBE"/>
			<stop  offset="0.3172" style="stop-color:#A5A3A3"/>
			<stop  offset="0.4258" style="stop-color:#959594"/>
			<stop  offset="0.5" style="stop-color:#908F8F"/>
			<stop  offset="0.5742" style="stop-color:#959594"/>
			<stop  offset="0.6828" style="stop-color:#A5A3A3"/>
			<stop  offset="0.8124" style="stop-color:#C1BFBE"/>
			<stop  offset="0.9572" style="stop-color:#ECEAEA"/>
			<stop  offset="1" style="stop-color:#FFFFFF"/>
		</linearGradient>
		<circle style="&st27;" cx="37.995" cy="37.993" r="27.598"/>
		
			<linearGradient id="SVGID_29_" gradientUnits="userSpaceOnUse" x1="106.2871" y1="56.5542" x2="143.4065" y2="19.4348" gradientTransform="matrix(-1 0 0 1 162.8408 0)">
			<stop  offset="0" style="stop-color:#FFFFFF"/>
			<stop  offset="0.0428" style="stop-color:#ECEAEA"/>
			<stop  offset="0.1876" style="stop-color:#C1BFBE"/>
			<stop  offset="0.3172" style="stop-color:#A5A3A3"/>
			<stop  offset="0.4258" style="stop-color:#959594"/>
			<stop  offset="0.5" style="stop-color:#908F8F"/>
			<stop  offset="0.5742" style="stop-color:#959594"/>
			<stop  offset="0.6828" style="stop-color:#A5A3A3"/>
			<stop  offset="0.8124" style="stop-color:#C1BFBE"/>
			<stop  offset="0.9572" style="stop-color:#ECEAEA"/>
			<stop  offset="1" style="stop-color:#FFFFFF"/>
		</linearGradient>
		<circle style="&st28;" cx="37.995" cy="37.993" r="26.247"/>
		
			<linearGradient id="SVGID_30_" gradientUnits="userSpaceOnUse" x1="107.2422" y1="55.5991" x2="142.4512" y2="20.3901" gradientTransform="matrix(-1 0 0 1 162.8408 0)">
			<stop  offset="0" style="stop-color:#FFFFFF"/>
			<stop  offset="0.0428" style="stop-color:#ECEAEA"/>
			<stop  offset="0.1876" style="stop-color:#C1BFBE"/>
			<stop  offset="0.3172" style="stop-color:#A5A3A3"/>
			<stop  offset="0.4258" style="stop-color:#959594"/>
			<stop  offset="0.5" style="stop-color:#908F8F"/>
			<stop  offset="0.5742" style="stop-color:#959594"/>
			<stop  offset="0.6828" style="stop-color:#A5A3A3"/>
			<stop  offset="0.8124" style="stop-color:#C1BFBE"/>
			<stop  offset="0.9572" style="stop-color:#ECEAEA"/>
			<stop  offset="1" style="stop-color:#FFFFFF"/>
		</linearGradient>
		<circle style="&st29;" cx="37.995" cy="37.993" r="24.896"/>
		
			<linearGradient id="SVGID_31_" gradientUnits="userSpaceOnUse" x1="108.1968" y1="54.6431" x2="141.4954" y2="21.3445" gradientTransform="matrix(-1 0 0 1 162.8408 0)">
			<stop  offset="0" style="stop-color:#FFFFFF"/>
			<stop  offset="0.0428" style="stop-color:#ECEAEA"/>
			<stop  offset="0.1876" style="stop-color:#C1BFBE"/>
			<stop  offset="0.3172" style="stop-color:#A5A3A3"/>
			<stop  offset="0.4258" style="stop-color:#959594"/>
			<stop  offset="0.5" style="stop-color:#908F8F"/>
			<stop  offset="0.5742" style="stop-color:#959594"/>
			<stop  offset="0.6828" style="stop-color:#A5A3A3"/>
			<stop  offset="0.8124" style="stop-color:#C1BFBE"/>
			<stop  offset="0.9572" style="stop-color:#ECEAEA"/>
			<stop  offset="1" style="stop-color:#FFFFFF"/>
		</linearGradient>
		<circle style="&st30;" cx="37.995" cy="37.993" r="23.545"/>
		
			<linearGradient id="SVGID_32_" gradientUnits="userSpaceOnUse" x1="109.1528" y1="53.6885" x2="140.5408" y2="22.3005" gradientTransform="matrix(-1 0 0 1 162.8408 0)">
			<stop  offset="0" style="stop-color:#FFFFFF"/>
			<stop  offset="0.0428" style="stop-color:#ECEAEA"/>
			<stop  offset="0.1876" style="stop-color:#C1BFBE"/>
			<stop  offset="0.3172" style="stop-color:#A5A3A3"/>
			<stop  offset="0.4258" style="stop-color:#959594"/>
			<stop  offset="0.5" style="stop-color:#908F8F"/>
			<stop  offset="0.5742" style="stop-color:#959594"/>
			<stop  offset="0.6828" style="stop-color:#A5A3A3"/>
			<stop  offset="0.8124" style="stop-color:#C1BFBE"/>
			<stop  offset="0.9572" style="stop-color:#ECEAEA"/>
			<stop  offset="1" style="stop-color:#FFFFFF"/>
		</linearGradient>
		<circle style="&st31;" cx="37.995" cy="37.993" r="22.194"/>
		
			<linearGradient id="SVGID_33_" gradientUnits="userSpaceOnUse" x1="110.1074" y1="52.7324" x2="139.5846" y2="23.2552" gradientTransform="matrix(-1 0 0 1 162.8408 0)">
			<stop  offset="0" style="stop-color:#FFFFFF"/>
			<stop  offset="0.0428" style="stop-color:#ECEAEA"/>
			<stop  offset="0.1876" style="stop-color:#C1BFBE"/>
			<stop  offset="0.3172" style="stop-color:#A5A3A3"/>
			<stop  offset="0.4258" style="stop-color:#959594"/>
			<stop  offset="0.5" style="stop-color:#908F8F"/>
			<stop  offset="0.5742" style="stop-color:#959594"/>
			<stop  offset="0.6828" style="stop-color:#A5A3A3"/>
			<stop  offset="0.8124" style="stop-color:#C1BFBE"/>
			<stop  offset="0.9572" style="stop-color:#ECEAEA"/>
			<stop  offset="1" style="stop-color:#FFFFFF"/>
		</linearGradient>
		<circle style="&st32;" cx="37.995" cy="37.993" r="20.843"/>
		
			<linearGradient id="SVGID_34_" gradientUnits="userSpaceOnUse" x1="111.0635" y1="51.7783" x2="138.6303" y2="24.2115" gradientTransform="matrix(-1 0 0 1 162.8408 0)">
			<stop  offset="0" style="stop-color:#FFFFFF"/>
			<stop  offset="0.0428" style="stop-color:#ECEAEA"/>
			<stop  offset="0.1876" style="stop-color:#C1BFBE"/>
			<stop  offset="0.3172" style="stop-color:#A5A3A3"/>
			<stop  offset="0.4258" style="stop-color:#959594"/>
			<stop  offset="0.5" style="stop-color:#908F8F"/>
			<stop  offset="0.5742" style="stop-color:#959594"/>
			<stop  offset="0.6828" style="stop-color:#A5A3A3"/>
			<stop  offset="0.8124" style="stop-color:#C1BFBE"/>
			<stop  offset="0.9572" style="stop-color:#ECEAEA"/>
			<stop  offset="1" style="stop-color:#FFFFFF"/>
		</linearGradient>
		<circle style="&st33;" cx="37.995" cy="37.993" r="19.492"/>
		
			<linearGradient id="SVGID_35_" gradientUnits="userSpaceOnUse" x1="112.0181" y1="50.8223" x2="137.6742" y2="25.1661" gradientTransform="matrix(-1 0 0 1 162.8408 0)">
			<stop  offset="0" style="stop-color:#FFFFFF"/>
			<stop  offset="0.0428" style="stop-color:#ECEAEA"/>
			<stop  offset="0.1876" style="stop-color:#C1BFBE"/>
			<stop  offset="0.3172" style="stop-color:#A5A3A3"/>
			<stop  offset="0.4258" style="stop-color:#959594"/>
			<stop  offset="0.5" style="stop-color:#908F8F"/>
			<stop  offset="0.5742" style="stop-color:#959594"/>
			<stop  offset="0.6828" style="stop-color:#A5A3A3"/>
			<stop  offset="0.8124" style="stop-color:#C1BFBE"/>
			<stop  offset="0.9572" style="stop-color:#ECEAEA"/>
			<stop  offset="1" style="stop-color:#FFFFFF"/>
		</linearGradient>
		<circle style="&st34;" cx="37.995" cy="37.993" r="18.141"/>
		
			<linearGradient id="SVGID_36_" gradientUnits="userSpaceOnUse" x1="112.9741" y1="49.8677" x2="136.7196" y2="26.1222" gradientTransform="matrix(-1 0 0 1 162.8408 0)">
			<stop  offset="0" style="stop-color:#FFFFFF"/>
			<stop  offset="0.0428" style="stop-color:#ECEAEA"/>
			<stop  offset="0.1876" style="stop-color:#C1BFBE"/>
			<stop  offset="0.3172" style="stop-color:#A5A3A3"/>
			<stop  offset="0.4258" style="stop-color:#959594"/>
			<stop  offset="0.5" style="stop-color:#908F8F"/>
			<stop  offset="0.5742" style="stop-color:#959594"/>
			<stop  offset="0.6828" style="stop-color:#A5A3A3"/>
			<stop  offset="0.8124" style="stop-color:#C1BFBE"/>
			<stop  offset="0.9572" style="stop-color:#ECEAEA"/>
			<stop  offset="1" style="stop-color:#FFFFFF"/>
		</linearGradient>
		<circle style="&st35;" cx="37.995" cy="37.993" r="16.79"/>
		
			<linearGradient id="SVGID_37_" gradientUnits="userSpaceOnUse" x1="113.9287" y1="48.9116" x2="135.7636" y2="27.0767" gradientTransform="matrix(-1 0 0 1 162.8408 0)">
			<stop  offset="0" style="stop-color:#FFFFFF"/>
			<stop  offset="0.0428" style="stop-color:#ECEAEA"/>
			<stop  offset="0.1876" style="stop-color:#C1BFBE"/>
			<stop  offset="0.3172" style="stop-color:#A5A3A3"/>
			<stop  offset="0.4258" style="stop-color:#959594"/>
			<stop  offset="0.5" style="stop-color:#908F8F"/>
			<stop  offset="0.5742" style="stop-color:#959594"/>
			<stop  offset="0.6828" style="stop-color:#A5A3A3"/>
			<stop  offset="0.8124" style="stop-color:#C1BFBE"/>
			<stop  offset="0.9572" style="stop-color:#ECEAEA"/>
			<stop  offset="1" style="stop-color:#FFFFFF"/>
		</linearGradient>
		<circle style="&st36;" cx="37.995" cy="37.993" r="15.439"/>
		
			<linearGradient id="SVGID_38_" gradientUnits="userSpaceOnUse" x1="114.8843" y1="47.957" x2="134.809" y2="28.0323" gradientTransform="matrix(-1 0 0 1 162.8408 0)">
			<stop  offset="0" style="stop-color:#FFFFFF"/>
			<stop  offset="0.0428" style="stop-color:#ECEAEA"/>
			<stop  offset="0.1876" style="stop-color:#C1BFBE"/>
			<stop  offset="0.3172" style="stop-color:#A5A3A3"/>
			<stop  offset="0.4258" style="stop-color:#959594"/>
			<stop  offset="0.5" style="stop-color:#908F8F"/>
			<stop  offset="0.5742" style="stop-color:#959594"/>
			<stop  offset="0.6828" style="stop-color:#A5A3A3"/>
			<stop  offset="0.8124" style="stop-color:#C1BFBE"/>
			<stop  offset="0.9572" style="stop-color:#ECEAEA"/>
			<stop  offset="1" style="stop-color:#FFFFFF"/>
		</linearGradient>
		<circle style="&st37;" cx="37.995" cy="37.993" r="14.089"/>
		
			<linearGradient id="SVGID_39_" gradientUnits="userSpaceOnUse" x1="115.8398" y1="47.002" x2="133.8539" y2="28.9879" gradientTransform="matrix(-1 0 0 1 162.8408 0)">
			<stop  offset="0" style="stop-color:#FFFFFF"/>
			<stop  offset="0.0428" style="stop-color:#ECEAEA"/>
			<stop  offset="0.1876" style="stop-color:#C1BFBE"/>
			<stop  offset="0.3172" style="stop-color:#A5A3A3"/>
			<stop  offset="0.4258" style="stop-color:#959594"/>
			<stop  offset="0.5" style="stop-color:#908F8F"/>
			<stop  offset="0.5742" style="stop-color:#959594"/>
			<stop  offset="0.6828" style="stop-color:#A5A3A3"/>
			<stop  offset="0.8124" style="stop-color:#C1BFBE"/>
			<stop  offset="0.9572" style="stop-color:#ECEAEA"/>
			<stop  offset="1" style="stop-color:#FFFFFF"/>
		</linearGradient>
		<circle style="&st38;" cx="37.995" cy="37.993" r="12.738"/>
		
			<linearGradient id="SVGID_40_" gradientUnits="userSpaceOnUse" x1="116.7949" y1="46.0464" x2="132.8983" y2="29.943" gradientTransform="matrix(-1 0 0 1 162.8408 0)">
			<stop  offset="0" style="stop-color:#FFFFFF"/>
			<stop  offset="0.0428" style="stop-color:#ECEAEA"/>
			<stop  offset="0.1876" style="stop-color:#C1BFBE"/>
			<stop  offset="0.3172" style="stop-color:#A5A3A3"/>
			<stop  offset="0.4258" style="stop-color:#959594"/>
			<stop  offset="0.5" style="stop-color:#908F8F"/>
			<stop  offset="0.5742" style="stop-color:#959594"/>
			<stop  offset="0.6828" style="stop-color:#A5A3A3"/>
			<stop  offset="0.8124" style="stop-color:#C1BFBE"/>
			<stop  offset="0.9572" style="stop-color:#ECEAEA"/>
			<stop  offset="1" style="stop-color:#FFFFFF"/>
		</linearGradient>
		<circle style="&st39;" cx="37.995" cy="37.993" r="11.386"/>
		
			<linearGradient id="SVGID_41_" gradientUnits="userSpaceOnUse" x1="117.7505" y1="45.0913" x2="131.9433" y2="30.8985" gradientTransform="matrix(-1 0 0 1 162.8408 0)">
			<stop  offset="0" style="stop-color:#FFFFFF"/>
			<stop  offset="0.0428" style="stop-color:#ECEAEA"/>
			<stop  offset="0.1876" style="stop-color:#C1BFBE"/>
			<stop  offset="0.3172" style="stop-color:#A5A3A3"/>
			<stop  offset="0.4258" style="stop-color:#959594"/>
			<stop  offset="0.5" style="stop-color:#908F8F"/>
			<stop  offset="0.5742" style="stop-color:#959594"/>
			<stop  offset="0.6828" style="stop-color:#A5A3A3"/>
			<stop  offset="0.8124" style="stop-color:#C1BFBE"/>
			<stop  offset="0.9572" style="stop-color:#ECEAEA"/>
			<stop  offset="1" style="stop-color:#FFFFFF"/>
		</linearGradient>
		<circle style="&st40;" cx="37.995" cy="37.993" r="10.035"/>
		
			<linearGradient id="SVGID_42_" gradientUnits="userSpaceOnUse" x1="118.7056" y1="44.1357" x2="130.9879" y2="31.8534" gradientTransform="matrix(-1 0 0 1 162.8408 0)">
			<stop  offset="0" style="stop-color:#FFFFFF"/>
			<stop  offset="0.0428" style="stop-color:#ECEAEA"/>
			<stop  offset="0.1876" style="stop-color:#C1BFBE"/>
			<stop  offset="0.3172" style="stop-color:#A5A3A3"/>
			<stop  offset="0.4258" style="stop-color:#959594"/>
			<stop  offset="0.5" style="stop-color:#908F8F"/>
			<stop  offset="0.5742" style="stop-color:#959594"/>
			<stop  offset="0.6828" style="stop-color:#A5A3A3"/>
			<stop  offset="0.8124" style="stop-color:#C1BFBE"/>
			<stop  offset="0.9572" style="stop-color:#ECEAEA"/>
			<stop  offset="1" style="stop-color:#FFFFFF"/>
		</linearGradient>
		<circle style="&st41;" cx="37.995" cy="37.993" r="8.685"/>
		
			<linearGradient id="SVGID_43_" gradientUnits="userSpaceOnUse" x1="119.6611" y1="43.1807" x2="130.0328" y2="32.809" gradientTransform="matrix(-1 0 0 1 162.8408 0)">
			<stop  offset="0" style="stop-color:#FFFFFF"/>
			<stop  offset="0.0428" style="stop-color:#ECEAEA"/>
			<stop  offset="0.1876" style="stop-color:#C1BFBE"/>
			<stop  offset="0.3172" style="stop-color:#A5A3A3"/>
			<stop  offset="0.4258" style="stop-color:#959594"/>
			<stop  offset="0.5" style="stop-color:#908F8F"/>
			<stop  offset="0.5742" style="stop-color:#959594"/>
			<stop  offset="0.6828" style="stop-color:#A5A3A3"/>
			<stop  offset="0.8124" style="stop-color:#C1BFBE"/>
			<stop  offset="0.9572" style="stop-color:#ECEAEA"/>
			<stop  offset="1" style="stop-color:#FFFFFF"/>
		</linearGradient>
		<circle style="&st42;" cx="37.995" cy="37.993" r="7.333"/>
		
			<linearGradient id="SVGID_44_" gradientUnits="userSpaceOnUse" x1="120.6162" y1="42.2251" x2="129.0772" y2="33.7641" gradientTransform="matrix(-1 0 0 1 162.8408 0)">
			<stop  offset="0" style="stop-color:#FFFFFF"/>
			<stop  offset="0.0428" style="stop-color:#ECEAEA"/>
			<stop  offset="0.1876" style="stop-color:#C1BFBE"/>
			<stop  offset="0.3172" style="stop-color:#A5A3A3"/>
			<stop  offset="0.4258" style="stop-color:#959594"/>
			<stop  offset="0.5" style="stop-color:#908F8F"/>
			<stop  offset="0.5742" style="stop-color:#959594"/>
			<stop  offset="0.6828" style="stop-color:#A5A3A3"/>
			<stop  offset="0.8124" style="stop-color:#C1BFBE"/>
			<stop  offset="0.9572" style="stop-color:#ECEAEA"/>
			<stop  offset="1" style="stop-color:#FFFFFF"/>
		</linearGradient>
		<circle style="&st43;" cx="37.995" cy="37.993" r="5.982"/>
		
			<linearGradient id="SVGID_45_" gradientUnits="userSpaceOnUse" x1="121.5713" y1="41.27" x2="128.1219" y2="34.7194" gradientTransform="matrix(-1 0 0 1 162.8408 0)">
			<stop  offset="0" style="stop-color:#FFFFFF"/>
			<stop  offset="0.0428" style="stop-color:#ECEAEA"/>
			<stop  offset="0.1876" style="stop-color:#C1BFBE"/>
			<stop  offset="0.3172" style="stop-color:#A5A3A3"/>
			<stop  offset="0.4258" style="stop-color:#959594"/>
			<stop  offset="0.5" style="stop-color:#908F8F"/>
			<stop  offset="0.5742" style="stop-color:#959594"/>
			<stop  offset="0.6828" style="stop-color:#A5A3A3"/>
			<stop  offset="0.8124" style="stop-color:#C1BFBE"/>
			<stop  offset="0.9572" style="stop-color:#ECEAEA"/>
			<stop  offset="1" style="stop-color:#FFFFFF"/>
		</linearGradient>
		<circle style="&st44;" cx="37.995" cy="37.993" r="4.632"/>
		
			<linearGradient id="SVGID_46_" gradientUnits="userSpaceOnUse" x1="122.5269" y1="40.3149" x2="127.1671" y2="35.6747" gradientTransform="matrix(-1 0 0 1 162.8408 0)">
			<stop  offset="0" style="stop-color:#FFFFFF"/>
			<stop  offset="0.0428" style="stop-color:#ECEAEA"/>
			<stop  offset="0.1876" style="stop-color:#C1BFBE"/>
			<stop  offset="0.3172" style="stop-color:#A5A3A3"/>
			<stop  offset="0.4258" style="stop-color:#959594"/>
			<stop  offset="0.5" style="stop-color:#908F8F"/>
			<stop  offset="0.5742" style="stop-color:#959594"/>
			<stop  offset="0.6828" style="stop-color:#A5A3A3"/>
			<stop  offset="0.8124" style="stop-color:#C1BFBE"/>
			<stop  offset="0.9572" style="stop-color:#ECEAEA"/>
			<stop  offset="1" style="stop-color:#FFFFFF"/>
		</linearGradient>
		<circle style="&st45;" cx="37.995" cy="37.993" r="3.281"/>
		
			<linearGradient id="SVGID_47_" gradientUnits="userSpaceOnUse" x1="123.4819" y1="39.3594" x2="126.2115" y2="36.6298" gradientTransform="matrix(-1 0 0 1 162.8408 0)">
			<stop  offset="0" style="stop-color:#FFFFFF"/>
			<stop  offset="0.0428" style="stop-color:#ECEAEA"/>
			<stop  offset="0.1876" style="stop-color:#C1BFBE"/>
			<stop  offset="0.3172" style="stop-color:#A5A3A3"/>
			<stop  offset="0.4258" style="stop-color:#959594"/>
			<stop  offset="0.5" style="stop-color:#908F8F"/>
			<stop  offset="0.5742" style="stop-color:#959594"/>
			<stop  offset="0.6828" style="stop-color:#A5A3A3"/>
			<stop  offset="0.8124" style="stop-color:#C1BFBE"/>
			<stop  offset="0.9572" style="stop-color:#ECEAEA"/>
			<stop  offset="1" style="stop-color:#FFFFFF"/>
		</linearGradient>
		<circle style="&st46;" cx="37.995" cy="37.993" r="1.93"/>
		
			<linearGradient id="SVGID_48_" gradientUnits="userSpaceOnUse" x1="124.4375" y1="38.4043" x2="125.2564" y2="37.5854" gradientTransform="matrix(-1 0 0 1 162.8408 0)">
			<stop  offset="0" style="stop-color:#FFFFFF"/>
			<stop  offset="0.0428" style="stop-color:#ECEAEA"/>
			<stop  offset="0.1876" style="stop-color:#C1BFBE"/>
			<stop  offset="0.3172" style="stop-color:#A5A3A3"/>
			<stop  offset="0.4258" style="stop-color:#959594"/>
			<stop  offset="0.5" style="stop-color:#908F8F"/>
			<stop  offset="0.5742" style="stop-color:#959594"/>
			<stop  offset="0.6828" style="stop-color:#A5A3A3"/>
			<stop  offset="0.8124" style="stop-color:#C1BFBE"/>
			<stop  offset="0.9572" style="stop-color:#ECEAEA"/>
			<stop  offset="1" style="stop-color:#FFFFFF"/>
		</linearGradient>
		<circle style="&st47;" cx="37.995" cy="37.993" r="0.579"/>
	</g>
</g>
</svg>
